<?xml version="1.0" encoding="UTF-8" standalone="no"?>
<!-- Created with Inkscape (http://www.inkscape.org/) -->

<svg
   width="256"
   height="256"
   viewBox="0 0 67.733332 67.733335"
   version="1.1"
   id="svg5"
   inkscape:version="1.1 (c68e22c387, 2021-05-23)"
   sodipodi:docname="dome.svg"
   xmlns:inkscape="http://www.inkscape.org/namespaces/inkscape"
   xmlns:sodipodi="http://sodipodi.sourceforge.net/DTD/sodipodi-0.dtd"
   xmlns="http://www.w3.org/2000/svg"
   xmlns:svg="http://www.w3.org/2000/svg">
  <sodipodi:namedview
     id="namedview20"
     pagecolor="#ffffff"
     bordercolor="#666666"
     borderopacity="1.0"
     inkscape:pageshadow="2"
     inkscape:pageopacity="0.0"
     inkscape:pagecheckerboard="0"
     inkscape:document-units="mm"
     showgrid="true"
     units="px"
     inkscape:zoom="2.096401"
     inkscape:cx="90.393013"
     inkscape:cy="147.39547"
     inkscape:window-width="1920"
     inkscape:window-height="1018"
     inkscape:window-x="-6"
     inkscape:window-y="-6"
     inkscape:window-maximized="1"
     inkscape:current-layer="g18389">
    <inkscape:grid
       type="xygrid"
       id="grid824"
       spacingx="0.26458333"
       empspacing="8"
       originx="0"
       originy="0" />
  </sodipodi:namedview>
  <defs
     id="defs2" />
  <g
     inkscape:groupmode="layer"
     id="layer2"
     inkscape:label="Layer 2">
    <g
       id="g18389"
       transform="matrix(0.99603223,0,0,0.99602431,0.13437608,0.13437501)">
      <path
         id="path1247"
         style="fill:none;stroke:#000000;stroke-width:0.264583px;stroke-linecap:butt;stroke-linejoin:miter;stroke-opacity:1"
         d="M 2.1166666,33.866666 V 44.449999 L 6.3499999,46.566666 21.166666,61.383333 M 61.383333,19.05 65.616666,33.866666 m 2.116666,0 h -2.116666 m -31.75,33.866666 v -2.116666 m -12.7,-4.233333 12.7,4.233333 M 33.866666,0 V 2.1166666 H 23.283333 L 21.166666,6.3499999 10.583333,10.583333 8.4666666,19.05 l -6.35,4.233333 V 33.866666 L 8.4666666,19.05 10.583333,33.866666 H 2.1166666 l 4.2333333,12.7 4.2333331,10.583333 10.583333,4.233334 2.116667,4.233333 h 10.583333 v -8.466667 l -12.7,4.233334 V 46.566666 H 6.3499999 l 4.2333331,-12.7 10.583333,12.7 2.116667,-12.7 h -12.7 L 21.166666,19.05 H 8.4666666 L 21.166666,6.3499999 V 19.05 l 12.7,-8.466667 -12.7,-4.2333331 12.7,-4.2333333 v 8.4666664 12.7 L 21.166666,19.05 23.283333,33.866666 33.866666,23.283333 V 33.866666 H 23.283333 l 10.583333,10.583333 -12.7,2.116667 12.7,10.583333 12.7,4.233334 -12.7,4.233333 h 10.583333 l 2.116667,-4.233333 V 46.566667 l -12.7,10.583332 v -12.7 l 12.7,2.116668 14.816667,-1e-6 -14.816667,14.816667 10.583333,-4.233334 4.233334,-10.583333 4.233333,-2.116667 V 33.866666 l -4.233333,12.7 -4.233334,-12.7 L 46.566666,46.566667 44.449999,33.866666 33.866666,44.449999 V 33.866666 h 10.583333 12.7 8.466667 V 23.283333 L 61.383333,19.05 57.149999,33.866666 46.566666,19.05 44.449999,33.866666 33.866666,23.283333 l 12.7,-4.233333 -12.7,-8.466667 12.7,-4.2333331 -12.7,-4.2333333 H 44.449999 L 46.566666,6.3499999 57.149999,10.583333 61.383333,19.05 H 46.566666 V 6.3499999 L 61.383333,19.05 M 33.866666,0 23.283333,2.1166666 l -12.7,8.4666664 -8.4666664,12.7 L 0,33.866666 l 2.1166666,10.583333 8.4666664,12.7 12.7,8.466667 10.583333,2.116666 10.583333,-2.116666 12.7,-8.466667 8.466667,-12.7 2.116666,-10.583333 -2.116666,-10.583333 -8.466667,-12.7 -12.7,-8.4666664 z" />
      <path
         style="fill:#b3b3b3;fill-opacity:1;fill-rule:evenodd;stroke-width:0.337296"
         d=""
         id="path7134"
         transform="scale(0.26458333)" />
      <path
         style="fill:#21cfcf;fill-opacity:1;fill-rule:evenodd;stroke-width:0.337296"
         d="m 128.67826,64.290895 c 0,-12.541947 0.0761,-22.803539 0.16906,-22.803539 0.50896,0 45.33747,30.178446 45.12006,30.374718 -0.14308,0.129176 -10.20194,3.539526 -22.35302,7.57856 -12.15107,4.039033 -22.28259,7.41347 -22.51448,7.498748 -0.33466,0.123073 -0.42162,-4.547827 -0.42162,-22.648487 z"
         id="path8224"
         transform="scale(0.26458333)" />
      <path
         style="fill:#cbcbcb;fill-opacity:1;fill-rule:evenodd;stroke-width:0.477008"
         d="m 111.61987,4.5072585 c 8.13298,-1.6665427 14.94824,-3.040463 15.145,-3.0531561 0.19677,-0.012693 0.35776,1.3721699 0.35776,3.0774734 v 3.1005519 l -15.14501,-0.047396 -15.145,-0.047395 z"
         id="path26599"
         transform="matrix(0.26563732,0,0,0.26563943,-0.13491138,-0.13491138)" />
      <path
         style="fill:#bebebe;fill-opacity:1;fill-rule:evenodd;stroke-width:0.477008"
         d="m 85.25965,15.979767 3.448583,-6.9166153 17.418417,0.037327 17.41842,0.037327 -20.50717,6.8792883 c -11.278935,3.783608 -20.669085,6.879288 -20.866996,6.879288 -0.197911,0 1.192024,-3.112477 3.088746,-6.916615 z"
         id="path26638"
         transform="matrix(0.26563732,0,0,0.26563943,-0.13491138,-0.13491138)" />
      <path
         style="fill:#b3b3b3;fill-opacity:1;fill-rule:evenodd;stroke-width:0.477008"
         d="M 104.22624,31.738907 C 92.289119,27.723661 82.844361,24.318482 83.237893,24.171843 c 0.393531,-0.146638 10.16027,-3.407204 21.703867,-7.245703 11.54359,-3.838498 21.25666,-7.0885259 21.58461,-7.2222844 0.46943,-0.1914693 0.59626,2.9105024 0.59626,14.5838014 0,11.563672 -0.13124,14.818711 -0.59626,14.789348 -0.32795,-0.02071 -10.363,-3.322851 -22.30013,-7.338098 z"
         id="path26677"
         transform="matrix(0.26563732,0,0,0.26563943,-0.13491138,-0.13491138)" />
      <path
         style="fill:#cbcbcb;fill-opacity:1;fill-rule:evenodd;stroke-width:0.477008"
         d="m 128.55365,4.5315758 c 0,-1.7053035 0.16099,-3.0901665 0.35776,-3.0774734 0.19676,0.012693 7.01201,1.3866134 15.145,3.0531561 l 14.78725,3.0300777 -15.14501,0.047395 -15.145,0.047396 z"
         id="path34456"
         transform="matrix(0.26563732,0,0,0.26563943,-0.13491138,-0.13491138)" />
      <path
         style="fill:#cbcbcb;fill-opacity:1;fill-rule:evenodd;stroke-width:0.477008"
         d="m 194.14225,30.984412 c -7.08357,-2.846511 -14.01719,-5.641245 -15.40805,-6.21052 l -2.52882,-1.035045 -3.10483,-6.196016 c -1.70766,-3.407809 -3.02729,-6.273554 -2.93252,-6.368324 0.16008,-0.160084 36.30431,23.729992 37.30659,24.65836 0.87097,0.806735 -0.50072,0.307908 -13.33237,-4.848455 z"
         id="path34495"
         transform="matrix(0.26563732,0,0,0.26563943,-0.13491138,-0.13491138)" />
      <path
         style="fill:#cbcbcb;fill-opacity:1;fill-rule:evenodd;stroke-width:0.477008"
         d="m 236.73239,76.425099 c -4.47869,-4.527908 -4.68618,-4.838455 -8.94778,-13.392099 -2.39952,-4.816185 -4.27786,-8.841605 -4.17409,-8.945376 0.10377,-0.103772 4.20944,5.843506 9.1237,13.216173 4.91427,7.372666 8.85586,13.484014 8.7591,13.580774 -0.0968,0.09676 -2.23918,-1.910002 -4.76093,-4.459472 z"
         id="path34534"
         transform="matrix(0.26563732,0,0,0.26563943,-0.13491138,-0.13491138)" />
      <path
         style="fill:#cbcbcb;fill-opacity:1;fill-rule:evenodd;stroke-width:0.477008"
         d="m 248.33005,111.97762 0.0474,-15.383504 3.03007,14.787244 c 1.66655,8.13299 3.04047,15.05557 3.05316,15.38351 0.0162,0.41822 -0.90273,0.59626 -3.07747,0.59626 h -3.10056 z"
         id="path34573"
         transform="matrix(0.26563732,0,0,0.26563943,-0.13491138,-0.13491138)" />
      <path
         style="fill:#cbcbcb;fill-opacity:1;fill-rule:evenodd;stroke-width:0.477008"
         d="m 248.33005,144.17566 -0.0474,-15.3835 h 3.10056 c 2.17474,0 3.09366,0.17803 3.07747,0.59626 -0.0127,0.32794 -1.38661,7.25052 -3.05316,15.3835 l -3.03007,14.78725 z"
         id="path34612"
         transform="matrix(0.26563732,0,0,0.26563943,-0.13491138,-0.13491138)" />
      <path
         style="fill:#cbcbcb;fill-opacity:1;fill-rule:evenodd;stroke-width:0.477008"
         d="m 220.13918,206.7456 c 0,-0.34582 9.88282,-25.24589 11.78149,-29.68382 0.2232,-0.52169 12.01907,-6.76993 12.78077,-6.76993 0.2403,0 -23.29702,35.55202 -24.14326,36.46726 -0.26394,0.28545 -0.419,0.28046 -0.419,-0.0135 z"
         id="path34651"
         transform="matrix(0.26563732,0,0,0.26563943,-0.13491138,-0.13491138)" />
      <path
         style="fill:#cbcbcb;fill-opacity:1;fill-rule:evenodd;stroke-width:0.477008"
         d="m 170.07334,244.82497 c 0.011,-0.19711 1.4599,-3.14486 3.2198,-6.55055 l 3.19981,-6.19217 15.25877,-6.09262 c 8.39232,-3.35094 15.40288,-6.03812 15.57903,-5.97153 0.17615,0.0666 -8.13921,5.75602 -18.47857,12.64317 -10.33936,6.88715 -18.78984,12.36081 -18.77884,12.1637 z"
         id="path34690"
         transform="matrix(0.26563732,0,0,0.26563943,-0.13491138,-0.13491138)" />
      <path
         style="fill:#cbcbcb;fill-opacity:1;fill-rule:evenodd;stroke-width:0.477008"
         d="m 128.55365,251.37128 v -3.32713 l 16.09902,0.0474 16.09902,0.0474 -14.54874,2.96404 c -8.00181,1.63021 -15.24637,3.10609 -16.09902,3.27973 l -1.55028,0.3157 z"
         id="path34729"
         transform="matrix(0.26563732,0,0,0.26563943,-0.13491138,-0.13491138)" />
      <path
         style="fill:#cbcbcb;fill-opacity:1;fill-rule:evenodd;stroke-width:0.477008"
         d="m 111.14286,251.38321 -15.741264,-3.24262 15.860514,-0.0482 15.86052,-0.0482 v 3.33906 c 0,1.83648 -0.0537,3.31735 -0.11925,3.29083 -0.0656,-0.0265 -7.20283,-1.5074 -15.86052,-3.29083 z"
         id="path34768"
         transform="matrix(0.26563732,0,0,0.26563943,-0.13491138,-0.13491138)" />
      <path
         style="fill:#cbcbcb;fill-opacity:1;fill-rule:evenodd;stroke-width:0.477008"
         d="m 66.757605,232.28688 c -10.218889,-6.81216 -18.366554,-12.38584 -18.105922,-12.38597 0.260633,-1.3e-4 7.314251,2.73333 15.674708,6.07434 l 15.20083,6.07457 3.076669,6.13982 c 1.692168,3.3769 2.999459,6.21703 2.905091,6.3114 -0.09437,0.0944 -8.532487,-5.402 -18.751376,-12.21416 z"
         id="path34807"
         transform="matrix(0.26563732,0,0,0.26563943,-0.13491138,-0.13491138)" />
      <path
         style="fill:#cbcbcb;fill-opacity:1;fill-rule:evenodd;stroke-width:0.477008"
         d="m 23.509631,188.99159 c -6.746283,-10.12864 -12.189095,-18.49258 -12.09514,-18.58654 0.09395,-0.0939 2.933747,1.21367 6.310649,2.90584 l 6.13982,3.07667 6.130426,15.3406 c 3.371734,8.43733 6.051627,15.41677 5.955319,15.50987 -0.09631,0.0931 -5.694792,-8.11779 -12.441074,-18.24644 z"
         id="path34846"
         transform="matrix(0.26563732,0,0,0.26563943,-0.13491138,-0.13491138)" />
      <path
         style="fill:#cbcbcb;fill-opacity:1;fill-rule:evenodd;stroke-width:0.477008"
         d="m 4.4299398,143.69865 -3.1879324,-16.09901 3.265145,-15.97977 3.2651451,-15.97977 0.045764,32.07879 c 0.025167,17.64333 -0.00958,32.07878 -0.077213,32.07878 -0.067636,0 -1.5575441,-7.24455 -3.3109071,-16.09902 z"
         id="path34885"
         transform="matrix(0.26563732,0,0,0.26563943,-0.13491138,-0.13491138)" />
      <path
         style="fill:#cbcbcb;fill-opacity:1;fill-rule:evenodd;stroke-width:0.477008"
         d="m 12.163704,84.189279 c 0,-0.132624 5.902973,-9.094 13.117719,-19.914169 7.214746,-10.820168 13.111957,-19.458792 13.104913,-19.196941 -0.01866,0.693688 -6.537296,26.508929 -6.736024,26.676142 -0.696893,0.58638 -19.046119,12.676102 -19.239206,12.676102 -0.136071,0 -0.247402,-0.10851 -0.247402,-0.241134 z"
         id="path34924"
         transform="matrix(0.26563732,0,0,0.26563943,-0.13491138,-0.13491138)" />
      <path
         style="fill:#cbcbcb;fill-opacity:1;fill-rule:evenodd;stroke-width:0.477008"
         d="m 48.654814,35.903819 c 0.958983,-0.983489 36.589384,-24.516357 36.800233,-24.305508 0.119639,0.119639 -1.130046,2.922881 -2.777079,6.229428 l -2.994604,6.011902 -15.037267,6.022086 C 47.027746,36.917478 48.038971,36.5354 48.654814,35.903819 Z"
         id="path34963"
         transform="matrix(0.26563732,0,0,0.26563943,-0.13491138,-0.13491138)" />
      <path
         style="fill:#bebebe;fill-opacity:1;fill-rule:evenodd;stroke-width:0.477008"
         d="m 152.88106,15.979767 -20.27284,-6.8413191 17.41842,-0.037648 17.41841,-0.037648 3.44859,6.9166151 c 1.91596,3.84273 3.18452,6.899885 2.85442,6.878968 -0.32679,-0.02071 -9.71694,-3.116242 -20.867,-6.878968 z"
         id="path35002"
         transform="matrix(0.26563732,0,0,0.26563943,-0.13491138,-0.13491138)" />
      <path
         style="fill:#bebebe;fill-opacity:1;fill-rule:evenodd;stroke-width:0.477008"
         d="M 204.52778,48.032493 C 191.3503,36.732059 180.63123,27.423747 180.70763,27.347356 c 0.0764,-0.07639 7.83868,2.942503 17.24953,6.708655 l 17.11063,6.847549 6.85636,13.706198 c 3.771,7.53841 6.79028,13.765325 6.70952,13.837589 -0.0808,0.07226 -10.92842,-9.11442 -24.10589,-20.414854 z"
         id="path37301"
         transform="matrix(0.26563732,0,0,0.26563943,-0.13491138,-0.13491138)" />
      <path
         style="fill:#bebebe;fill-opacity:1;fill-rule:evenodd;stroke-width:0.477008"
         d="m 239.98525,99.045004 c -3.64534,-12.771932 -6.53279,-23.316792 -6.41656,-23.433022 0.11623,-0.116231 3.15524,2.738228 6.75336,6.343242 l 6.54202,6.554571 -0.12547,16.878455 -0.12547,16.87845 z"
         id="path37340"
         transform="matrix(0.26563732,0,0,0.26563943,-0.13491138,-0.13491138)" />
      <path
         style="fill:#bebebe;fill-opacity:1;fill-rule:evenodd;stroke-width:0.477008"
         d="m 233.22117,173.27315 c 0.14689,-0.45912 3.25704,-9.74289 6.91145,-20.6306 l 6.64438,-19.79583 0.0373,17.28836 0.0373,17.28835 -6.67175,3.34224 c -3.66947,1.83823 -6.79641,3.34224 -6.94876,3.34224 -0.15236,0 -0.15683,-0.37564 -0.01,-0.83476 z"
         id="path37379"
         transform="matrix(0.26563732,0,0,0.26563943,-0.13491138,-0.13491138)" />
      <path
         style="fill:#bebebe;fill-opacity:1;fill-rule:evenodd;stroke-width:0.477008"
         d="m 204.1404,204.17843 c 13.63008,-13.63197 24.85422,-24.71314 24.94253,-24.62483 0.0883,0.0883 -3.01484,8.1093 -6.89588,17.82442 l -7.05645,17.66385 -17.41352,6.96098 c -9.57743,3.82854 -17.62617,6.96098 -17.88608,6.96098 -0.25991,0 10.67932,-11.15343 24.3094,-24.7854 z"
         id="path37418"
         transform="matrix(0.26563732,0,0,0.26563943,-0.13491138,-0.13491138)" />
      <path
         style="fill:#bebebe;fill-opacity:1;fill-rule:evenodd;stroke-width:0.477008"
         d="m 153.50713,239.84767 c 10.96969,-3.67958 20.05003,-6.58501 20.17853,-6.45651 0.1285,0.1285 -1.22282,3.15601 -3.00292,6.7278 l -3.23657,6.49417 -16.94197,-0.0377 -16.94197,-0.0377 z"
         id="path37457"
         transform="matrix(0.26563732,0,0,0.26563943,-0.13491138,-0.13491138)" />
      <path
         style="fill:#bebebe;fill-opacity:1;fill-rule:evenodd;stroke-width:0.477008"
         d="m 85.120454,239.88417 c -1.853994,-3.70093 -3.304339,-6.78402 -3.222989,-6.85133 0.08135,-0.0673 9.270686,2.94379 20.420745,6.69131 l 20.27284,6.81368 -17.04985,0.0376 -17.049849,0.0377 z"
         id="path37496"
         transform="matrix(0.26563732,0,0,0.26563943,-0.13491138,-0.13491138)" />
      <path
         style="fill:#bebebe;fill-opacity:1;fill-rule:evenodd;stroke-width:0.477008"
         d="m 58.162732,222.01144 -17.204529,-6.90797 -6.992797,-17.48756 c -3.846037,-9.61815 -6.934672,-17.54568 -6.863631,-17.61672 0.07104,-0.071 11.173709,10.91694 24.672596,24.41774 13.498888,13.5008 24.329562,24.53691 24.068162,24.5247 -0.261401,-0.0122 -8.21731,-3.1308 -17.679801,-6.93019 z"
         id="path37535"
         transform="matrix(0.26563732,0,0,0.26563943,-0.13491138,-0.13491138)" />
      <path
         style="fill:#bebebe;fill-opacity:1;fill-rule:evenodd;stroke-width:0.477008"
         d="m 15.860515,170.74053 -6.5588594,-3.3174 0.037659,-17.0497 c 0.020712,-9.37733 0.1633466,-16.72772 0.3169654,-16.33419 1.451185,3.71756 13.325968,40.06264 13.083206,40.04369 -0.176061,-0.0138 -3.271598,-1.51782 -6.878971,-3.3424 z"
         id="path37574"
         transform="matrix(0.26563732,0,0,0.26563943,-0.13491138,-0.13491138)" />
      <path
         style="fill:#bebebe;fill-opacity:1;fill-rule:evenodd;stroke-width:0.477008"
         d="M 9.3145115,106.09453 9.3273674,88.484981 19.617223,81.655156 c 5.65942,-3.756405 10.381252,-6.738429 10.49296,-6.626721 0.188097,0.188097 -20.1329445,48.000055 -20.5991215,48.466225 -0.1151733,0.11518 -0.2036207,-7.71489 -0.19655,-17.40013 z"
         id="path37613"
         transform="matrix(0.26563732,0,0,0.26563943,-0.13491138,-0.13491138)" />
      <path
         style="fill:#bebebe;fill-opacity:1;fill-rule:evenodd;stroke-width:0.477008"
         d="m 34.147964,68.448635 c 0.02304,-0.523603 1.579279,-6.953706 3.458307,-14.289117 l 3.416415,-13.337111 17.618423,-7.046102 c 9.690132,-3.875356 17.677486,-6.987039 17.749675,-6.91485 0.07219,0.07219 -9.41234,9.673038 -21.07673,21.33522 -13.805435,13.80282 -21.193361,20.871673 -21.16609,20.25196 z"
         id="path37652"
         transform="matrix(0.26563732,0,0,0.26563943,-0.13491138,-0.13491138)" />
      <path
         style="fill:#b3b3b3;fill-opacity:1;fill-rule:evenodd;stroke-width:0.477008"
         d="m 128.55365,24.327407 c 0,-8.132986 0.0564,-14.7872474 0.12522,-14.7872474 0.19254,0 42.94627,14.2667374 43.75952,14.6023634 0.57634,0.237856 -42.2553,14.972132 -43.52308,14.972132 -0.19891,0 -0.36166,-6.654262 -0.36166,-14.787248 z"
         id="path37691"
         transform="matrix(0.26563732,0,0,0.26563943,-0.13491138,-0.13491138)" />
      <path
         style="fill:#b3b3b3;fill-opacity:1;fill-rule:evenodd;stroke-width:0.477008"
         d="m 152.19538,55.558888 c -13.49399,-9.025028 -22.11711,-15.077614 -21.70386,-15.23399 0.37712,-0.142704 10.6134,-3.568833 22.74729,-7.613621 l 22.06162,-7.35416 v 22.620032 c 0,12.441018 -0.16099,22.605685 -0.35775,22.58815 -0.19677,-0.01754 -10.43305,-6.77042 -22.7473,-15.006411 z"
         id="path40185"
         transform="matrix(0.26563732,0,0,0.26563943,-0.13491138,-0.13491138)" />
      <path
         style="fill:#b3b3b3;fill-opacity:1;fill-rule:evenodd;stroke-width:0.477008"
         d="M 176.73146,48.835065 V 26.118934 l 2.9813,2.595533 c 1.63971,1.427544 13.44566,11.559255 26.23544,22.514913 12.78977,10.955659 23.25414,20.009928 23.25414,20.120599 0,0.11067 -11.80595,0.201218 -26.23544,0.201218 h -26.23544 z"
         id="path40224"
         transform="matrix(0.26563732,0,0,0.26563943,-0.13491138,-0.13491138)" />
      <path
         style="fill:#b3b3b3;fill-opacity:1;fill-rule:evenodd;stroke-width:0.477008"
         d="M 196.15511,99.462064 177.23912,72.982221 h 26.74815 c 21.20091,0 26.70135,0.123657 26.52243,0.59626 -0.12415,0.327943 -3.4975,12.080227 -7.49633,26.116187 -3.99882,14.035962 -7.42172,25.683572 -7.60643,25.883582 -0.18471,0.20001 -8.84804,-11.55227 -19.25183,-26.116186 z"
         id="path40263"
         transform="matrix(0.26563732,0,0,0.26563943,-0.13491138,-0.13491138)" />
      <path
         style="fill:#b3b3b3;fill-opacity:1;fill-rule:evenodd;stroke-width:0.477008"
         d="m 216.80013,127.01329 c 0,-0.8644 14.53745,-51.169021 14.78725,-51.169021 0.2498,0 14.78724,50.304621 14.78724,51.169021 0,0.19131 -6.65426,0.34784 -14.78724,0.34784 -8.13299,0 -14.78725,-0.15653 -14.78725,-0.34784 z"
         id="path40302"
         transform="matrix(0.26563732,0,0,0.26563943,-0.13491138,-0.13491138)" />
      <path
         style="fill:#b3b3b3;fill-opacity:1;fill-rule:evenodd;stroke-width:0.477008"
         d="m 224.23975,151.33078 c -3.9056,-11.74036 -7.20022,-21.61442 -7.32139,-21.94236 -0.17327,-0.46898 2.95807,-0.59626 14.66902,-0.59626 11.71094,0 14.84228,0.12728 14.66901,0.59626 -0.12117,0.32794 -3.41579,10.202 -7.32139,21.94236 -3.9056,11.74036 -7.21203,21.34611 -7.34762,21.34611 -0.1356,0 -3.44203,-9.60575 -7.34763,-21.34611 z"
         id="path40341"
         transform="matrix(0.26563732,0,0,0.26563943,-0.13491138,-0.13491138)" />
      <path
         style="fill:#b3b3b3;fill-opacity:1;fill-rule:evenodd;stroke-width:0.477008"
         d="m 177.90334,174.61831 c 0.66625,-1.07801 37.12379,-44.63363 37.35987,-44.63363 0.145,0 3.64528,10.14238 7.77839,22.53862 l 7.51476,22.53863 h -26.46359 c -16.19323,0 -26.35719,-0.17217 -26.18943,-0.44362 z"
         id="path40380"
         transform="matrix(0.26563732,0,0,0.26563943,-0.13491138,-0.13491138)" />
      <path
         style="fill:#b3b3b3;fill-opacity:1;fill-rule:evenodd;stroke-width:0.477008"
         d="m 176.73146,202.9669 v -26.47395 h 26.59158 26.59158 L 203.4439,202.9669 c -14.55889,14.56066 -26.5251,26.47394 -26.59158,26.47394 -0.0665,0 -0.12086,-11.91328 -0.12086,-26.47394 z"
         id="path40419"
         transform="matrix(0.26563732,0,0,0.26563943,-0.13491138,-0.13491138)" />
      <path
         style="fill:#b3b3b3;fill-opacity:1;fill-rule:evenodd;stroke-width:0.477008"
         d="m 151.80442,222.84319 -22.3035,-7.47637 22.02859,-18.36367 c 12.11573,-10.10001 22.42062,-18.64415 22.89976,-18.98697 0.84057,-0.60142 0.87116,0.3073 0.87116,25.87768 0,20.90287 -0.12595,26.49304 -0.59626,26.46335 -0.32794,-0.0207 -10.63283,-3.40202 -22.89975,-7.51402 z"
         id="path40458"
         transform="matrix(0.26563732,0,0,0.26563943,-0.13491138,-0.13491138)" />
      <path
         style="fill:#b3b3b3;fill-opacity:1;fill-rule:evenodd;stroke-width:0.477008"
         d="m 128.55365,231.58989 v -14.94754 l 22.42411,7.47093 c 12.33326,4.10902 22.15366,7.56067 21.82311,7.67033 -0.33054,0.10966 -10.42139,3.47414 -22.4241,7.47661 l -21.82312,7.27721 z"
         id="path40497"
         transform="matrix(0.26563732,0,0,0.26563943,-0.13491138,-0.13491138)" />
      <path
         style="fill:#b3b3b3;fill-opacity:1;fill-rule:evenodd;stroke-width:0.477008"
         d="m 104.70325,238.99191 c -11.412414,-3.84517 -21.033598,-7.08936 -21.380407,-7.20931 -0.346809,-0.11995 9.366267,-3.54217 21.584607,-7.60492 l 22.21518,-7.38683 v 14.67263 c 0,13.68508 -0.0562,14.66749 -0.83477,14.59614 -0.45912,-0.0421 -10.17219,-3.22254 -21.58461,-7.06771 z"
         id="path40536"
         transform="matrix(0.26563732,0,0,0.26563943,-0.13491138,-0.13491138)" />
      <path
         style="fill:#b3b3b3;fill-opacity:1;fill-rule:evenodd;stroke-width:0.477008"
         d="m 80.852853,203.88634 v -26.50852 l 1.395977,1.10784 c 0.767788,0.60932 11.055726,9.15735 22.86208,18.99564 l 21.46611,17.8878 -22.50055,7.51288 c -12.375295,4.13208 -22.663232,7.51288 -22.862078,7.51288 -0.198847,0 -0.361539,-11.92884 -0.361539,-26.50852 z"
         id="path40575"
         transform="matrix(0.26563732,0,0,0.26563943,-0.13491138,-0.13491138)" />
      <path
         style="fill:#b3b3b3;fill-opacity:1;fill-rule:evenodd;stroke-width:0.477008"
         d="m 52.709382,202.9669 -26.47072,-26.47395 h 26.591583 26.591584 v 26.47395 c 0,14.56066 -0.05439,26.47394 -0.120864,26.47394 -0.06648,0 -12.032687,-11.91328 -26.591583,-26.47394 z"
         id="path40614"
         transform="matrix(0.26563732,0,0,0.26563943,-0.13491138,-0.13491138)" />
      <path
         style="fill:#b3b3b3;fill-opacity:1;fill-rule:evenodd;stroke-width:0.477008"
         d="m 25.638127,174.46567 c 0.121148,-0.32794 3.523158,-10.52399 7.560023,-22.65788 4.036865,-12.13389 7.44883,-22.04941 7.582145,-22.03448 0.202069,0.0226 33.180165,39.51821 36.648824,43.89177 l 1.107841,1.39685 H 51.977408 c -21.047111,0 -26.513833,-0.12375 -26.339281,-0.59626 z"
         id="path40653"
         transform="matrix(0.26563732,0,0,0.26563943,-0.13491138,-0.13491138)" />
      <path
         style="fill:#b3b3b3;fill-opacity:1;fill-rule:evenodd;stroke-width:0.477008"
         d="M 17.040188,151.29817 C 13.046349,139.30712 9.7786636,129.33783 9.7786636,129.1442 c 0,-0.19362 6.6372304,-0.35204 14.7494004,-0.35204 h 14.7494 l -7.338773,22.00486 c -4.036325,12.10268 -7.405869,22.07196 -7.487876,22.15397 -0.08201,0.082 -3.416789,-9.66176 -7.410627,-21.65282 z"
         id="path40692"
         transform="matrix(0.26563732,0,0,0.26563943,-0.13491138,-0.13491138)" />
      <path
         style="fill:#b3b3b3;fill-opacity:1;fill-rule:evenodd;stroke-width:0.477008"
         d="m 9.9807795,126.52637 c 0.1465225,-0.45912 5.1680165,-12.26626 11.1588755,-26.23808 l 10.89247,-25.403312 3.67678,25.880322 c 2.022228,14.23418 3.669461,26.04131 3.660517,26.23808 -0.0089,0.19676 -6.68499,0.35775 -14.835656,0.35775 -13.897188,0 -14.802813,-0.0519 -14.5529865,-0.83476 z"
         id="path40731"
         transform="matrix(0.26563732,0,0,0.26563943,-0.13491138,-0.13491138)" />
      <path
         style="fill:#b3b3b3;fill-opacity:1;fill-rule:evenodd;stroke-width:0.477008"
         d="M 46.750095,58.640523 C 53.831841,51.539652 64.08006,41.425585 69.523913,36.164818 l 9.897916,-9.565031 V 49.075492 71.551197 H 56.648011 33.874192 Z"
         id="path40770"
         transform="matrix(0.26563732,0,0,0.26563943,-0.13491138,-0.13491138)" />
      <path
         style="fill:#b3b3b3;fill-opacity:1;fill-rule:evenodd;stroke-width:0.477008"
         d="M 80.852853,47.977149 V 25.357117 l 22.061617,7.35416 c 12.13389,4.044788 22.37018,7.47092 22.74731,7.613628 0.41289,0.156238 -8.26869,6.22988 -21.82081,15.265873 C 91.462391,63.8443 81.2261,70.597181 81.093657,70.597181 c -0.132442,0 -0.240804,-10.179014 -0.240804,-22.620032 z"
         id="path40809"
         transform="matrix(0.26563732,0,0,0.26563943,-0.13491138,-0.13491138)" />
      <path
         style="fill:#b3b3b3;fill-opacity:1;fill-rule:evenodd;stroke-width:0.477008"
         d="m 40.562895,124.42857 c -0.664854,-3.75916 -7.334627,-51.204556 -7.215041,-51.324143 0.0724,-0.0724 10.280002,-0.07586 22.683552,-0.0077 l 22.551911,0.12397 -18.715969,26.235439 C 49.573565,113.88566 41.082602,125.7672 40.99854,125.8596 c -0.08406,0.0924 -0.280103,-0.55157 -0.435645,-1.43103 z"
         id="path40848"
         transform="matrix(0.26563732,0,0,0.26563943,-0.13491138,-0.13491138)" />
      <path
         style="fill:#21cfcf;fill-opacity:1;fill-rule:evenodd;stroke-width:0.477008"
         d="m 89.916005,127.23959 c 0,-0.0669 8.37149,-8.49098 18.603315,-18.72027 l 18.60331,-18.598729 v 18.720269 18.72027 h -18.60331 c -10.231825,0 -18.603315,-0.0547 -18.603315,-0.12154 z"
         id="path40887"
         transform="matrix(0.26563732,0,0,0.26563943,-0.13491138,-0.13491138)" />
      <path
         style="fill:#21cfcf;fill-opacity:1;fill-rule:evenodd;stroke-width:0.477008"
         d="M 104.37863,79.503432 C 92.525319,75.523234 82.704497,72.141075 82.554583,71.987521 82.3517,71.779715 112.13082,51.631906 125.81086,42.721405 l 1.31177,-0.854424 v 22.474236 c 0,17.681463 -0.12716,22.466207 -0.59626,22.436586 -0.32795,-0.02071 -10.29443,-3.294174 -22.14774,-7.274371 z"
         id="path43030"
         transform="matrix(0.26563732,0,0,0.26563943,-0.13491138,-0.13491138)" />
      <path
         style="fill:#21cfcf;fill-opacity:1;fill-rule:evenodd;stroke-width:0.477008"
         d="M 84.912104,100.20453 C 82.852726,85.758661 81.271752,73.835343 81.398829,73.708266 c 0.127078,-0.127077 10.360137,3.146158 22.740131,7.273857 l 22.50908,7.504906 -18.9958,18.991351 -18.995812,18.99136 z"
         id="path43069"
         transform="matrix(0.26563732,0,0,0.26563943,-0.13491138,-0.13491138)" />
      <path
         style="fill:#21cfcf;fill-opacity:1;fill-rule:evenodd;stroke-width:0.477008"
         d="M 42.788796,125.81086 C 43.428901,124.9582 51.986055,113.00235 61.804692,99.242303 74.313436,81.712277 79.711588,74.502198 79.839942,75.1534 c 0.10075,0.511155 1.834592,12.467004 3.852981,26.56855 l 3.6698,25.63918 H 64.493845 41.624967 Z"
         id="path43108"
         transform="matrix(0.26563732,0,0,0.26563943,-0.13491138,-0.13491138)" />
      <path
         style="fill:#21cfcf;fill-opacity:1;fill-rule:evenodd;stroke-width:0.477008"
         d="m 60.920358,151.52784 -18.739975,-22.49718 22.273019,-0.12402 c 12.250161,-0.0682 22.381726,-0.0153 22.51459,0.11756 0.188672,0.18867 -6.971139,44.6084 -7.240935,44.92302 -0.0367,0.0428 -8.499713,-10.04593 -18.806699,-22.41938 z"
         id="path43147"
         transform="matrix(0.26563732,0,0,0.26563943,-0.13491138,-0.13491138)" />
      <path
         style="fill:#21cfcf;fill-opacity:1;fill-rule:evenodd;stroke-width:0.477008"
         d="m 84.713686,152.85535 c 2.035921,-12.20164 3.771257,-22.39356 3.856303,-22.64869 0.08504,-0.25514 8.608712,7.99223 18.941481,18.32748 18.06625,18.07059 18.73405,18.80229 17.41022,19.07602 -0.75714,0.15656 -10.4994,1.79045 -21.64946,3.63088 -11.150063,1.84042 -20.720001,3.44812 -21.26653,3.57267 -0.957365,0.21817 -0.858378,-0.58449 2.707986,-21.95836 z"
         id="path43186"
         transform="matrix(0.26563732,0,0,0.26563943,-0.13491138,-0.13491138)" />
      <path
         style="fill:#21cfcf;fill-opacity:1;fill-rule:evenodd;stroke-width:0.477008"
         d="m 108.51932,147.15696 -18.360165,-18.3648 h 18.481735 18.48174 v 18.3648 c 0,10.10065 -0.0547,18.36481 -0.12158,18.36481 -0.0669,0 -8.38365,-8.26416 -18.48173,-18.36481 z"
         id="path43225"
         transform="matrix(0.26563732,0,0,0.26563943,-0.13491138,-0.13491138)" />
      <path
         style="fill:#21cfcf;fill-opacity:1;fill-rule:evenodd;stroke-width:0.477008"
         d="m 104.38563,194.99442 -22.498502,-18.73997 22.413692,-3.74186 c 12.32754,-2.05803 22.50767,-3.6479 22.62252,-3.53305 0.11485,0.11485 0.15301,10.23168 0.0848,22.48184 l -0.12402,22.27302 z"
         id="path43264"
         transform="matrix(0.26563732,0,0,0.26563943,-0.13491138,-0.13491138)" />
      <path
         style="fill:#21cfcf;fill-opacity:1;fill-rule:evenodd;stroke-width:0.477008"
         d="m 128.55365,191.60185 c 0,-20.16188 0.0833,-22.74102 0.73483,-22.74102 0.73524,0 43.46284,7.05561 44.31945,7.31848 0.24972,0.0766 -9.30237,8.25939 -21.22686,18.18391 -11.92448,9.92452 -22.16385,18.47998 -22.75415,19.01212 l -1.07327,0.96754 z"
         id="path43303"
         transform="matrix(0.26563732,0,0,0.26563943,-0.13491138,-0.13491138)" />
      <path
         style="fill:#21cfcf;fill-opacity:1;fill-rule:evenodd;stroke-width:0.477008"
         d="m 128.55365,147.39547 v -18.60331 h 18.72027 18.72027 l -18.59872,18.60331 c -10.2293,10.23182 -18.65342,18.60331 -18.72027,18.60331 -0.0668,0 -0.12155,-8.37149 -0.12155,-18.60331 z"
         id="path43342"
         transform="matrix(0.26563732,0,0,0.26563943,-0.13491138,-0.13491138)" />
      <path
         style="fill:#21cfcf;fill-opacity:1;fill-rule:evenodd;stroke-width:0.477008"
         d="m 152.51696,171.20362 c -12.13738,-2.0342 -22.28053,-3.7694 -22.54033,-3.856 -0.2598,-0.0866 7.99879,-8.62656 18.35241,-18.9777 10.35362,-10.35113 18.90551,-18.72237 19.0042,-18.60274 0.26814,0.32503 7.60675,44.86668 7.41591,45.01088 -0.0903,0.0683 -10.09481,-1.54024 -22.23219,-3.57444 z"
         id="path43381"
         transform="matrix(0.26563732,0,0,0.26563943,-0.13491138,-0.13491138)" />
      <path
         style="fill:#21cfcf;fill-opacity:1;fill-rule:evenodd;stroke-width:0.477008"
         d="m 176.04444,172.63208 c -0.47459,-2.0512 -7.3222,-43.59764 -7.20673,-43.72539 0.0616,-0.0682 10.20777,-0.0682 22.54697,0 l 22.43492,0.12397 -18.08527,21.70386 c -9.94689,11.93713 -18.38655,22.00568 -18.7548,22.37457 -0.57508,0.57608 -0.707,0.50878 -0.93509,-0.47701 z"
         id="path43420"
         transform="matrix(0.26563732,0,0,0.26563943,-0.13491138,-0.13491138)" />
      <path
         style="fill:#21cfcf;fill-opacity:1;fill-rule:evenodd;stroke-width:0.477008"
         d="m 168.80999,126.04936 c 0.14491,-0.72148 1.77282,-12.04445 3.61758,-25.16217 1.84475,-13.117721 3.51414,-24.447513 3.70974,-25.177318 0.32867,-1.226274 1.76664,0.649036 18.95895,24.725008 10.23183,14.32856 18.67487,26.24865 18.76232,26.48909 0.0949,0.26098 -9.00345,0.43716 -22.57653,0.43716 h -22.73553 z"
         id="path43459"
         transform="matrix(0.26563732,0,0,0.26563943,-0.13491138,-0.13491138)" />
      <path
         style="fill:#21cfcf;fill-opacity:1;fill-rule:evenodd;stroke-width:0.477008"
         d="m 148.22728,107.20462 -18.72099,-18.725489 22.50997,-7.499544 c 12.38049,-4.124749 22.58745,-7.422068 22.68214,-7.327376 0.25339,0.253384 -7.21406,52.277899 -7.50382,52.277899 -0.13547,0 -8.67076,-8.42647 -18.9673,-18.72549 z"
         id="path43498"
         transform="matrix(0.26563732,0,0,0.26563943,-0.13491138,-0.13491138)" />
      <path
         style="fill:#21cfcf;fill-opacity:1;fill-rule:evenodd;stroke-width:0.477008"
         d="M 128.55365,108.64086 V 89.920591 l 18.60331,18.598729 c 10.23182,10.22929 18.60331,18.65342 18.60331,18.72027 0,0.0668 -8.37149,0.12154 -18.60331,0.12154 h -18.60331 z"
         id="path43537"
         transform="matrix(0.26563732,0,0,0.26563943,-0.13491138,-0.13491138)" />
    </g>
  </g>
</svg>
